<?xml version="1.0" encoding="UTF-8"?>
<!DOCTYPE svg PUBLIC "-//W3C//DTD SVG 1.1//EN" "http://www.w3.org/Graphics/SVG/1.1/DTD/svg11.dtd">
<svg xmlns="http://www.w3.org/2000/svg" version="1.1" width="456px" height="547px" style="shape-rendering:geometricPrecision; text-rendering:geometricPrecision; image-rendering:optimizeQuality; fill-rule:evenodd; clip-rule:evenodd" xmlns:xlink="http://www.w3.org/1999/xlink">
<g><path style="opacity:1" fill="#55a86b" d="M 209.5,-0.5 C 212.5,-0.5 215.5,-0.5 218.5,-0.5C 239.449,2.23051 258.782,9.23051 276.5,20.5C 270.994,21.6223 266.66,19.9556 263.5,15.5C 247.813,7.28551 231.147,2.78551 213.5,2C 211.934,1.3918 210.6,0.558465 209.5,-0.5 Z"/></g>
<g><path style="opacity:1" fill="#5eab74" d="M 180.5,-0.5 C 182.5,-0.5 184.5,-0.5 186.5,-0.5C 180.935,0.919989 175.268,2.41999 169.5,4C 166.304,4.80451 163.304,4.63784 160.5,3.5C 167.282,2.13182 173.949,0.79849 180.5,-0.5 Z"/></g>
<g><path style="opacity:0.996" fill="#50a868" d="M 154.5,6.5 C 154.279,7.73485 153.612,8.73485 152.5,9.5C 149.893,10.3184 147.226,10.8184 144.5,11C 142.038,13.536 139.038,15.036 135.5,15.5C 133.67,19.3405 130.67,21.0072 126.5,20.5C 126.881,22.9418 126.214,23.6085 124.5,22.5C 120.621,23.9438 116.954,25.6105 113.5,27.5C 125.622,17.6051 139.289,10.6051 154.5,6.5 Z"/></g>
<g><path style="opacity:1" fill="#2ca74d" d="M 186.5,-0.5 C 194.167,-0.5 201.833,-0.5 209.5,-0.5C 210.6,0.558465 211.934,1.3918 213.5,2C 231.147,2.78551 247.813,7.28551 263.5,15.5C 266.66,19.9556 270.994,21.6223 276.5,20.5C 276.351,21.552 276.517,22.552 277,23.5C 278.785,24.2401 280.618,24.9067 282.5,25.5C 283.386,26.325 283.719,27.325 283.5,28.5C 286.588,28.6386 289.255,29.6386 291.5,31.5C 291.5,32.8333 291.5,34.1667 291.5,35.5C 293.5,35.8333 295.5,36.1667 297.5,36.5C 304.857,41.5242 310.857,47.8576 315.5,55.5C 316.15,57.4352 316.483,59.4352 316.5,61.5C 318.322,61.8308 319.989,62.4975 321.5,63.5C 323.25,64.6594 324.25,66.326 324.5,68.5C 324.5,72.1746 326.167,74.8413 329.5,76.5C 329.67,78.8484 330.003,81.1817 330.5,83.5C 332.107,87.1619 333.607,90.8285 335,94.5C 336.113,95.305 337.279,95.9717 338.5,96.5C 338.5,96.8333 338.5,97.1667 338.5,97.5C 339.64,107.514 341.306,117.514 343.5,127.5C 344.499,141.484 344.833,155.484 344.5,169.5C 343.883,169.611 343.383,169.944 343,170.5C 341.968,176.901 340.802,183.235 339.5,189.5C 339.5,189.833 339.5,190.167 339.5,190.5C 337.97,192.369 336.47,194.369 335,196.5C 332.731,202 330.897,207.666 329.5,213.5C 328.61,216.948 326.943,219.948 324.5,222.5C 321.606,223.953 319.94,226.286 319.5,229.5C 318.167,229.5 316.833,229.5 315.5,229.5C 315.5,230.833 315.5,232.167 315.5,233.5C 314.167,233.5 312.833,233.5 311.5,233.5C 311.657,234.873 311.49,236.207 311,237.5C 308.006,232.352 306.506,232.686 306.5,238.5C 303.543,237.778 300.543,237.945 297.5,239C 298.337,240.011 298.67,241.178 298.5,242.5C 299.5,242.5 300.5,242.5 301.5,242.5C 301.5,241.5 301.5,240.5 301.5,239.5C 303.103,239.312 304.437,239.812 305.5,241C 304.833,241.333 304.167,241.667 303.5,242C 304.423,244.041 304.756,246.208 304.5,248.5C 302.36,251.061 300.027,253.395 297.5,255.5C 296.022,255.238 294.689,255.571 293.5,256.5C 288.514,260.661 283.181,264.327 277.5,267.5C 276.873,268.417 276.539,269.417 276.5,270.5C 276.158,271.338 275.492,271.672 274.5,271.5C 272.194,271.993 269.861,272.326 267.5,272.5C 267.5,273.5 267.5,274.5 267.5,275.5C 263.584,274.961 260.584,276.294 258.5,279.5C 254.548,280.272 250.548,280.605 246.5,280.5C 246.5,281.5 246.5,282.5 246.5,283.5C 243.539,283.464 241.206,284.464 239.5,286.5C 239.5,287.167 239.167,287.5 238.5,287.5C 238.083,286.876 237.416,286.543 236.5,286.5C 232.111,287.103 227.778,287.77 223.5,288.5C 216.441,288.604 209.441,289.271 202.5,290.5C 201.374,267.19 201.208,243.857 202,220.5C 206.08,220.116 210.246,219.949 214.5,220C 217.648,218.576 220.648,217.076 223.5,215.5C 225.882,214.649 227.882,213.316 229.5,211.5C 234.162,208.835 238.829,206.169 243.5,203.5C 245.255,202.928 246.922,202.094 248.5,201C 251.701,197.464 255.201,194.297 259,191.5C 259.505,189.482 260.005,187.482 260.5,185.5C 262.758,183.954 264.591,181.954 266,179.5C 267.623,175.29 269.623,171.29 272,167.5C 276.075,150.527 275.242,133.861 269.5,117.5C 270.311,116.784 270.978,115.95 271.5,115C 270.837,113.323 270.837,111.49 271.5,109.5C 271.167,108.5 270.833,107.5 270.5,106.5C 269.682,109.107 269.182,111.774 269,114.5C 267.265,113.394 265.431,111.728 263.5,109.5C 263.657,108.127 263.49,106.793 263,105.5C 259.667,101.167 256.333,96.8333 253,92.5C 251.644,91.6198 250.144,91.2865 248.5,91.5C 246.464,89.1169 244.798,86.4502 243.5,83.5C 239.01,82.407 234.676,81.0737 230.5,79.5C 230.167,79.5 229.833,79.5 229.5,79.5C 228.71,78.2058 227.71,77.0391 226.5,76C 221.01,74.1115 215.343,73.2781 209.5,73.5C 200.408,73.1714 191.408,73.8381 182.5,75.5C 178.774,75.1774 175.107,75.5108 171.5,76.5C 167.167,80.1653 162.167,82.4986 156.5,83.5C 156.5,84.5 156.5,85.5 156.5,86.5C 153.5,87.8333 150.5,89.1667 147.5,90.5C 147.5,92.1667 147.5,93.8333 147.5,95.5C 143.051,97.2944 140.384,100.628 139.5,105.5C 139.5,105.833 139.5,106.167 139.5,106.5C 138.5,106.5 137.5,106.5 136.5,106.5C 136.657,107.873 136.49,109.207 136,110.5C 133.667,111.5 132,113.167 131,115.5C 129.644,120.733 128.477,126.067 127.5,131.5C 126.508,135.783 126.174,140.116 126.5,144.5C 102.833,144.5 79.1667,144.5 55.5,144.5C 56.1289,135.18 56.4622,125.846 56.5,116.5C 56.5841,112.163 57.5841,108.163 59.5,104.5C 60.1174,104.389 60.6174,104.056 61,103.5C 62.8795,97.767 64.7128,92.1003 66.5,86.5C 67.5832,86.4606 68.5832,86.1272 69.5,85.5C 71.4453,82.7036 72.9453,79.7036 74,76.5C 74.5354,78.2705 75.3687,78.6039 76.5,77.5C 75.3818,74.1884 75.3818,70.8551 76.5,67.5C 77.5,67.5 78.5,67.5 79.5,67.5C 79.9628,64.779 80.6295,62.1123 81.5,59.5C 87.627,53.8741 93.627,48.0407 99.5,42C 101.332,41.2515 102.999,40.2515 104.5,39C 107.733,40.0518 110.066,38.8852 111.5,35.5C 110.689,34.7836 110.022,33.9503 109.5,33C 111.083,31.2654 112.416,29.4321 113.5,27.5C 116.954,25.6105 120.621,23.9438 124.5,22.5C 126.214,23.6085 126.881,22.9418 126.5,20.5C 130.67,21.0072 133.67,19.3405 135.5,15.5C 139.038,15.036 142.038,13.536 144.5,11C 147.226,10.8184 149.893,10.3184 152.5,9.5C 153.612,8.73485 154.279,7.73485 154.5,6.5C 156.25,5.13022 158.25,4.13022 160.5,3.5C 163.304,4.63784 166.304,4.80451 169.5,4C 175.268,2.41999 180.935,0.919989 186.5,-0.5 Z"/></g>
<g><path style="opacity:1" fill="#58a970" d="M 276.5,20.5 C 284.704,24.3859 291.704,29.7192 297.5,36.5C 295.5,36.1667 293.5,35.8333 291.5,35.5C 291.5,34.1667 291.5,32.8333 291.5,31.5C 289.255,29.6386 286.588,28.6386 283.5,28.5C 283.719,27.325 283.386,26.325 282.5,25.5C 280.618,24.9067 278.785,24.2401 277,23.5C 276.517,22.552 276.351,21.552 276.5,20.5 Z"/></g>
<g><path style="opacity:1" fill="#4ba862" d="M 113.5,27.5 C 112.416,29.4321 111.083,31.2654 109.5,33C 110.022,33.9503 110.689,34.7836 111.5,35.5C 110.066,38.8852 107.733,40.0518 104.5,39C 102.999,40.2515 101.332,41.2515 99.5,42C 93.627,48.0407 87.627,53.8741 81.5,59.5C 89.8333,46.5 100.5,35.8333 113.5,27.5 Z"/></g>
<g><path style="opacity:0.953" fill="#58a76f" d="M 315.5,55.5 C 317.984,57.8003 319.984,60.4669 321.5,63.5C 319.989,62.4975 318.322,61.8308 316.5,61.5C 316.483,59.4352 316.15,57.4352 315.5,55.5 Z"/></g>
<g><path style="opacity:0.992" fill="#6db17e" d="M 324.5,68.5 C 326.897,70.6621 328.564,73.3288 329.5,76.5C 326.167,74.8413 324.5,72.1746 324.5,68.5 Z"/></g>
<g><path style="opacity:1" fill="#4ca864" d="M 81.5,59.5 C 80.6295,62.1123 79.9628,64.779 79.5,67.5C 78.5,67.5 77.5,67.5 76.5,67.5C 75.3818,70.8551 75.3818,74.1884 76.5,77.5C 75.3687,78.6039 74.5354,78.2705 74,76.5C 72.9453,79.7036 71.4453,82.7036 69.5,85.5C 68.5832,86.1272 67.5832,86.4606 66.5,86.5C 69.3928,76.2876 74.3928,67.2876 81.5,59.5 Z"/></g>
<g><path style="opacity:0.78" fill="#63ae75" d="M 209.5,73.5 C 215.343,73.2781 221.01,74.1115 226.5,76C 227.71,77.0391 228.71,78.2058 229.5,79.5C 222.757,77.3622 216.09,75.3622 209.5,73.5 Z"/></g>
<g><path style="opacity:0.698" fill="#63ae77" d="M 182.5,75.5 C 164.906,80.7508 150.572,90.7508 139.5,105.5C 140.384,100.628 143.051,97.2944 147.5,95.5C 147.5,93.8333 147.5,92.1667 147.5,90.5C 150.5,89.1667 153.5,87.8333 156.5,86.5C 156.5,85.5 156.5,84.5 156.5,83.5C 162.167,82.4986 167.167,80.1653 171.5,76.5C 175.107,75.5108 178.774,75.1774 182.5,75.5 Z"/></g>
<g><path style="opacity:1" fill="#55ab6c" d="M 230.5,79.5 C 234.676,81.0737 239.01,82.407 243.5,83.5C 244.798,86.4502 246.464,89.1169 248.5,91.5C 242.492,87.4971 236.492,83.4971 230.5,79.5 Z"/></g>
<g><path style="opacity:1" fill="#55a76b" d="M 329.5,76.5 C 333.258,82.754 336.258,89.4206 338.5,96.5C 337.279,95.9717 336.113,95.305 335,94.5C 333.607,90.8285 332.107,87.1619 330.5,83.5C 330.003,81.1817 329.67,78.8484 329.5,76.5 Z"/></g>
<g><path style="opacity:0.808" fill="#63ac76" d="M 66.5,86.5 C 64.7128,92.1003 62.8795,97.767 61,103.5C 60.6174,104.056 60.1174,104.389 59.5,104.5C 60.6811,97.9406 63.0145,91.9406 66.5,86.5 Z"/></g>
<g><path style="opacity:0.816" fill="#5caa6f" d="M 248.5,91.5 C 250.144,91.2865 251.644,91.6198 253,92.5C 256.333,96.8333 259.667,101.167 263,105.5C 263.49,106.793 263.657,108.127 263.5,109.5C 258.582,103.569 253.582,97.5689 248.5,91.5 Z"/></g>
<g><path style="opacity:1" fill="#4ca765" d="M 260.5,185.5 C 271.963,166.424 274.796,146.091 269,124.5C 267.146,119.468 265.313,114.468 263.5,109.5C 265.431,111.728 267.265,113.394 269,114.5C 269.182,111.774 269.682,109.107 270.5,106.5C 270.833,107.5 271.167,108.5 271.5,109.5C 270.837,111.49 270.837,113.323 271.5,115C 270.978,115.95 270.311,116.784 269.5,117.5C 275.242,133.861 276.075,150.527 272,167.5C 269.623,171.29 267.623,175.29 266,179.5C 264.591,181.954 262.758,183.954 260.5,185.5 Z"/></g>
<g><path style="opacity:0.794" fill="#63ae74" d="M 139.5,106.5 C 131.961,118.496 127.961,131.662 127.5,146C 102.836,146.5 78.1689,146.667 53.5,146.5C 53.1942,136.224 54.1942,126.224 56.5,116.5C 56.4622,125.846 56.1289,135.18 55.5,144.5C 79.1667,144.5 102.833,144.5 126.5,144.5C 126.174,140.116 126.508,135.783 127.5,131.5C 128.477,126.067 129.644,120.733 131,115.5C 132,113.167 133.667,111.5 136,110.5C 136.49,109.207 136.657,107.873 136.5,106.5C 137.5,106.5 138.5,106.5 139.5,106.5 Z"/></g>
<g><path style="opacity:1" fill="#5cac72" d="M 338.5,97.5 C 341.204,103.12 343.037,109.12 344,115.5C 347.678,133.663 347.844,151.663 344.5,169.5C 344.833,155.484 344.499,141.484 343.5,127.5C 341.306,117.514 339.64,107.514 338.5,97.5 Z"/></g>
<g><path style="opacity:0.412" fill="#da8977" d="M 173.5,146.5 C 173.5,146.833 173.5,147.167 173.5,147.5C 168.484,148.058 163.484,148.725 158.5,149.5C 163.184,147.549 168.184,146.549 173.5,146.5 Z"/></g>
<g><path style="opacity:0.533" fill="#d68176" d="M 158.5,149.5 C 155.727,150.657 152.727,151.324 149.5,151.5C 152.171,149.882 155.171,149.215 158.5,149.5 Z"/></g>
<g><path style="opacity:0.808" fill="#d06a5e" d="M 149.5,151.5 C 149.389,152.117 149.056,152.617 148.5,153C 144.406,153.557 140.406,154.39 136.5,155.5C 140.403,153.102 144.736,151.769 149.5,151.5 Z"/></g>
<g><path style="opacity:1" fill="#ea402c" d="M 179.5,219.5 C 176.161,219.89 172.827,220.39 169.5,221C 168.944,221.383 168.611,221.883 168.5,222.5C 163.899,222.47 159.899,223.803 156.5,226.5C 156.158,227.338 155.492,227.672 154.5,227.5C 150.869,227.16 147.536,227.994 144.5,230C 143.748,230.671 143.414,231.504 143.5,232.5C 143.167,232.5 142.833,232.5 142.5,232.5C 136.482,234.707 130.482,237.04 124.5,239.5C 124.75,242.505 123.417,244.338 120.5,245C 118.859,246.129 117.859,247.629 117.5,249.5C 117.5,250.167 117.167,250.5 116.5,250.5C 114.143,250.337 111.81,250.503 109.5,251C 109.957,251.414 110.291,251.914 110.5,252.5C 108.957,254.253 107.957,256.253 107.5,258.5C 103.999,258.611 101.665,260.278 100.5,263.5C 99.914,263.291 99.414,262.957 99,262.5C 98.2345,265.58 97.2345,268.58 96,271.5C 94.9887,272.337 93.8221,272.67 92.5,272.5C 87.6209,283.259 82.4543,293.926 77,304.5C 76.5702,307.192 76.7369,309.859 77.5,312.5C 76.2101,313.058 75.3768,314.058 75,315.5C 72.3296,329.133 71.8296,342.8 73.5,356.5C 73.5,356.833 73.5,357.167 73.5,357.5C 73.8651,365.257 74.8651,372.924 76.5,380.5C 76.5,381.5 76.5,382.5 76.5,383.5C 75.2749,384.152 74.6083,385.319 74.5,387C 74.0488,389.879 75.2155,391.712 78,392.5C 78.6667,393.5 78.6667,394.5 78,395.5C 73.3914,392.869 70.8914,388.869 70.5,383.5C 69.5,383.5 68.5,383.5 67.5,383.5C 67.5715,380.807 67.9049,378.14 68.5,375.5C 68.523,373.933 68.023,372.6 67,371.5C 64.983,376.639 65.1497,381.805 67.5,387C 65.8469,389.553 66.5136,391.387 69.5,392.5C 51.269,393.173 33.1024,393.84 15,394.5C 14.5172,393.552 14.3505,392.552 14.5,391.5C 79.751,391.163 79.751,390.163 14.5,388.5C 12.0454,389.91 11.0454,392.077 11.5,395C 11.691,397.05 12.3576,398.883 13.5,400.5C 12.4826,403.028 11.3159,403.028 10,400.5C 9.78224,395.719 8.94891,391.052 7.5,386.5C 9.57011,381.013 10.9034,375.347 11.5,369.5C 11.4712,367.971 10.8045,366.804 9.5,366C 11.7008,365.175 13.5341,365.675 15,367.5C 30.9301,365.689 47.0968,364.855 63.5,365C 45.4908,364.833 27.4908,364.333 9.5,363.5C 7.66655,358.362 6.99988,353.028 7.5,347.5C 26.1696,347.667 44.8363,347.5 63.5,347C 44.5029,346.5 25.5029,346.333 6.5,346.5C 6.64987,349.459 5.64987,351.959 3.5,354C 4.60232,356.401 4.76899,358.901 4,361.5C 3.61742,360.944 3.11742,360.611 2.5,360.5C 1.92984,349.43 1.59651,338.096 1.5,326.5C 2.54235,318.582 3.20901,310.582 3.5,302.5C 3.26269,301.209 3.59603,300.209 4.5,299.5C 7.54205,294.35 9.20872,288.683 9.5,282.5C 9.5,282.167 9.5,281.833 9.5,281.5C 13.7892,276.305 16.1225,270.305 16.5,263.5C 19.1658,261.511 20.8325,258.844 21.5,255.5C 24.1215,252.249 26.7881,248.916 29.5,245.5C 30.2945,243.505 30.9612,241.505 31.5,239.5C 33.3978,234.935 35.7311,230.601 38.5,226.5C 41.2165,224.387 44.0498,222.387 47,220.5C 50.3818,216.259 53.2151,211.592 55.5,206.5C 56.552,206.649 57.552,206.483 58.5,206C 60.7384,203.257 63.405,201.091 66.5,199.5C 67.4565,197.925 68.1231,196.258 68.5,194.5C 69.8333,193.833 70.8333,192.833 71.5,191.5C 74.9895,190.687 77.6562,188.687 79.5,185.5C 81.7488,184.92 83.4154,183.587 84.5,181.5C 86.698,181.88 88.3646,181.213 89.5,179.5C 91.5,179.5 93.5,179.5 95.5,179.5C 95.3505,178.448 95.5172,177.448 96,176.5C 98.6407,173.881 101.807,172.048 105.5,171C 106.823,170.184 107.489,169.017 107.5,167.5C 113.474,166.668 119.14,165.002 124.5,162.5C 124.5,161.5 124.5,160.5 124.5,159.5C 124.833,159.5 125.167,159.5 125.5,159.5C 129.787,159.524 133.453,158.19 136.5,155.5C 140.406,154.39 144.406,153.557 148.5,153C 149.056,152.617 149.389,152.117 149.5,151.5C 152.727,151.324 155.727,150.657 158.5,149.5C 163.484,148.725 168.484,148.058 173.5,147.5C 181.819,146.876 190.152,146.543 198.5,146.5C 198.5,170.167 198.5,193.833 198.5,217.5C 193.156,217.334 187.823,217.501 182.5,218C 181.263,218.232 180.263,218.732 179.5,219.5 Z"/></g>
<g><path style="opacity:1" fill="#d44d3c" d="M 185.5,145.5 C 190.167,145.5 194.833,145.5 199.5,145.5C 199.5,169.5 199.5,193.5 199.5,217.5C 198.5,218.167 197.5,218.833 196.5,219.5C 192.5,219.5 188.5,219.5 184.5,219.5C 182.833,219.5 181.167,219.5 179.5,219.5C 180.263,218.732 181.263,218.232 182.5,218C 187.823,217.501 193.156,217.334 198.5,217.5C 198.5,193.833 198.5,170.167 198.5,146.5C 190.152,146.543 181.819,146.876 173.5,147.5C 173.5,147.167 173.5,146.833 173.5,146.5C 177.481,145.979 181.481,145.646 185.5,145.5 Z"/></g>
<g><path style="opacity:0.796" fill="#d3685c" d="M 136.5,155.5 C 133.453,158.19 129.787,159.524 125.5,159.5C 128.8,157.358 132.467,156.025 136.5,155.5 Z"/></g>
<g><path style="opacity:0.996" fill="#d86051" d="M 124.5,159.5 C 124.5,160.5 124.5,161.5 124.5,162.5C 119.14,165.002 113.474,166.668 107.5,167.5C 112.735,164.051 118.402,161.384 124.5,159.5 Z"/></g>
<g><path style="opacity:0.843" fill="#5eaa73" d="M 344.5,169.5 C 343.89,176.55 342.223,183.216 339.5,189.5C 340.802,183.235 341.968,176.901 343,170.5C 343.383,169.944 343.883,169.611 344.5,169.5 Z"/></g>
<g><path style="opacity:1" fill="#d76857" d="M 98.5,172.5 C 97.8953,174.026 96.7286,175.026 95,175.5C 94.5172,176.448 94.3505,177.448 94.5,178.5C 92.5853,178.216 90.9187,178.549 89.5,179.5C 88.3646,181.213 86.698,181.88 84.5,181.5C 88.8187,178.004 93.4854,175.004 98.5,172.5 Z"/></g>
<g><path style="opacity:1" fill="#dd513f" d="M 107.5,167.5 C 107.489,169.017 106.823,170.184 105.5,171C 101.807,172.048 98.6407,173.881 96,176.5C 95.5172,177.448 95.3505,178.448 95.5,179.5C 93.5,179.5 91.5,179.5 89.5,179.5C 90.9187,178.549 92.5853,178.216 94.5,178.5C 94.3505,177.448 94.5172,176.448 95,175.5C 96.7286,175.026 97.8953,174.026 98.5,172.5C 101.22,170.473 104.22,168.807 107.5,167.5 Z"/></g>
<g><path style="opacity:0.655" fill="#d7746a" d="M 84.5,181.5 C 83.4154,183.587 81.7488,184.92 79.5,185.5C 80.5846,183.413 82.2512,182.08 84.5,181.5 Z"/></g>
<g><path style="opacity:0.78" fill="#d37566" d="M 79.5,185.5 C 77.6562,188.687 74.9895,190.687 71.5,191.5C 73.8003,189.016 76.4669,187.016 79.5,185.5 Z"/></g>
<g><path style="opacity:0.267" fill="#e6a89e" d="M 71.5,191.5 C 70.8333,192.833 69.8333,193.833 68.5,194.5C 68.5,192.5 69.5,191.5 71.5,191.5 Z"/></g>
<g><path style="opacity:0.706" fill="#bd6156" d="M 185.5,145.5 C 190.305,144.513 195.305,144.179 200.5,144.5C 200.5,168.833 200.5,193.167 200.5,217.5C 200.167,217.5 199.833,217.5 199.5,217.5C 199.5,193.5 199.5,169.5 199.5,145.5C 194.833,145.5 190.167,145.5 185.5,145.5 Z"/></g>
<g><path style="opacity:0.745" fill="#65af7a" d="M 260.5,185.5 C 260.005,187.482 259.505,189.482 259,191.5C 255.201,194.297 251.701,197.464 248.5,201C 246.922,202.094 245.255,202.928 243.5,203.5C 249.87,198.131 255.537,192.131 260.5,185.5 Z"/></g>
<g><path style="opacity:0.984" fill="#d95e4d" d="M 68.5,194.5 C 68.1231,196.258 67.4565,197.925 66.5,199.5C 63.405,201.091 60.7384,203.257 58.5,206C 57.552,206.483 56.552,206.649 55.5,206.5C 59.2008,201.799 63.5341,197.799 68.5,194.5 Z"/></g>
<g><path style="opacity:0.671" fill="#66b17c" d="M 339.5,190.5 C 337.922,199.031 334.588,206.698 329.5,213.5C 330.897,207.666 332.731,202 335,196.5C 336.47,194.369 337.97,192.369 339.5,190.5 Z"/></g>
<g><path style="opacity:0.922" fill="#6fb184" d="M 229.5,211.5 C 227.882,213.316 225.882,214.649 223.5,215.5C 221.833,215.5 220.167,215.5 218.5,215.5C 221.982,213.938 225.648,212.605 229.5,211.5 Z"/></g>
<g><path style="opacity:0.875" fill="#d77a6c" d="M 179.5,219.5 C 181.167,219.5 182.833,219.5 184.5,219.5C 180.404,221.023 176.071,222.023 171.5,222.5C 170.5,222.5 169.5,222.5 168.5,222.5C 168.611,221.883 168.944,221.383 169.5,221C 172.827,220.39 176.161,219.89 179.5,219.5 Z"/></g>
<g><path style="opacity:1" fill="#de6252" d="M 55.5,206.5 C 53.2151,211.592 50.3818,216.259 47,220.5C 44.0498,222.387 41.2165,224.387 38.5,226.5C 43.0478,218.947 48.7145,212.28 55.5,206.5 Z"/></g>
<g><path style="opacity:0.996" fill="#49a561" d="M 218.5,215.5 C 220.167,215.5 221.833,215.5 223.5,215.5C 220.648,217.076 217.648,218.576 214.5,220C 210.246,219.949 206.08,220.116 202,220.5C 201.208,243.857 201.374,267.19 202.5,290.5C 209.441,289.271 216.441,288.604 223.5,288.5C 220.922,288.98 218.588,289.98 216.5,291.5C 211.897,292.383 207.23,292.717 202.5,292.5C 201.833,292.5 201.5,292.167 201.5,291.5C 200.51,267.241 200.177,242.908 200.5,218.5C 206.915,219.143 212.915,218.143 218.5,215.5 Z"/></g>
<g><path style="opacity:0.302" fill="#e4958e" d="M 168.5,222.5 C 169.5,222.5 170.5,222.5 171.5,222.5C 166.681,224.049 161.681,225.383 156.5,226.5C 159.899,223.803 163.899,222.47 168.5,222.5 Z"/></g>
<g><path style="opacity:0.796" fill="#d57363" d="M 154.5,227.5 C 151.062,229.381 147.395,231.048 143.5,232.5C 143.414,231.504 143.748,230.671 144.5,230C 147.536,227.994 150.869,227.16 154.5,227.5 Z"/></g>
<g><path style="opacity:1" fill="#45a95e" d="M 324.5,222.5 C 319.284,232.257 312.617,240.924 304.5,248.5C 304.756,246.208 304.423,244.041 303.5,242C 304.167,241.667 304.833,241.333 305.5,241C 304.437,239.812 303.103,239.312 301.5,239.5C 301.5,240.5 301.5,241.5 301.5,242.5C 300.5,242.5 299.5,242.5 298.5,242.5C 298.67,241.178 298.337,240.011 297.5,239C 300.543,237.945 303.543,237.778 306.5,238.5C 306.506,232.686 308.006,232.352 311,237.5C 311.49,236.207 311.657,234.873 311.5,233.5C 312.833,233.5 314.167,233.5 315.5,233.5C 315.5,232.167 315.5,230.833 315.5,229.5C 316.833,229.5 318.167,229.5 319.5,229.5C 319.94,226.286 321.606,223.953 324.5,222.5 Z"/></g>
<g><path style="opacity:1" fill="#d76959" d="M 142.5,232.5 C 133.937,237.713 125.603,243.379 117.5,249.5C 117.859,247.629 118.859,246.129 120.5,245C 123.417,244.338 124.75,242.505 124.5,239.5C 130.482,237.04 136.482,234.707 142.5,232.5 Z"/></g>
<g><path style="opacity:0.718" fill="#cf786c" d="M 38.5,226.5 C 35.7311,230.601 33.3978,234.935 31.5,239.5C 30.8333,239.5 30.1667,239.5 29.5,239.5C 31.3331,234.338 34.3331,230.004 38.5,226.5 Z"/></g>
<g><path style="opacity:0.373" fill="#78bc89" d="M 218.5,215.5 C 212.915,218.143 206.915,219.143 200.5,218.5C 200.177,242.908 200.51,267.241 201.5,291.5C 200.833,291.5 200.167,291.5 199.5,291.5C 199.5,291.167 199.5,290.833 199.5,290.5C 199.5,266.833 199.5,243.167 199.5,219.5C 198.5,219.5 197.5,219.5 196.5,219.5C 197.5,218.833 198.5,218.167 199.5,217.5C 199.833,217.5 200.167,217.5 200.5,217.5C 206.534,217.114 212.534,216.447 218.5,215.5 Z"/></g>
<g><path style="opacity:1" fill="#dc5441" d="M 29.5,239.5 C 30.1667,239.5 30.8333,239.5 31.5,239.5C 30.9612,241.505 30.2945,243.505 29.5,245.5C 26.7881,248.916 24.1215,252.249 21.5,255.5C 21.5,255.167 21.5,254.833 21.5,254.5C 23.3867,249.059 26.0534,244.059 29.5,239.5 Z"/></g>
<g><path style="opacity:0.998" fill="#e16f5c" d="M 116.5,250.5 C 114.1,253.903 111.1,256.57 107.5,258.5C 107.957,256.253 108.957,254.253 110.5,252.5C 110.291,251.914 109.957,251.414 109.5,251C 111.81,250.503 114.143,250.337 116.5,250.5 Z"/></g>
<g><path style="opacity:0.855" fill="#d5786b" d="M 21.5,254.5 C 21.5,254.833 21.5,255.167 21.5,255.5C 20.8325,258.844 19.1658,261.511 16.5,263.5C 16.9399,259.748 18.6066,256.748 21.5,254.5 Z"/></g>
<g><path style="opacity:1" fill="#69af7b" d="M 297.5,255.5 C 291.341,261.657 284.341,266.657 276.5,270.5C 276.539,269.417 276.873,268.417 277.5,267.5C 283.181,264.327 288.514,260.661 293.5,256.5C 294.689,255.571 296.022,255.238 297.5,255.5 Z"/></g>
<g><path style="opacity:1" fill="#dd6453" d="M 107.5,258.5 C 97.9038,270.693 89.5705,283.693 82.5,297.5C 80.0181,299.503 79.0181,302.169 79.5,305.5C 79.5905,308.152 78.9238,310.485 77.5,312.5C 76.7369,309.859 76.5702,307.192 77,304.5C 82.4543,293.926 87.6209,283.259 92.5,272.5C 93.8221,272.67 94.9887,272.337 96,271.5C 97.2345,268.58 98.2345,265.58 99,262.5C 99.414,262.957 99.914,263.291 100.5,263.5C 101.665,260.278 103.999,258.611 107.5,258.5 Z"/></g>
<g><path style="opacity:0.988" fill="#68ad7a" d="M 274.5,271.5 C 272.664,273.588 270.331,274.921 267.5,275.5C 267.5,274.5 267.5,273.5 267.5,272.5C 269.861,272.326 272.194,271.993 274.5,271.5 Z"/></g>
<g><path style="opacity:0.976" fill="#d36153" d="M 16.5,263.5 C 16.1225,270.305 13.7892,276.305 9.5,281.5C 11.2364,275.178 13.5697,269.178 16.5,263.5 Z"/></g>
<g><path style="opacity:0.875" fill="#66ad7a" d="M 267.5,275.5 C 264.943,277.607 261.943,278.941 258.5,279.5C 260.584,276.294 263.584,274.961 267.5,275.5 Z"/></g>
<g><path style="opacity:1" fill="#5dae72" d="M 258.5,279.5 C 252.798,283.168 246.465,285.502 239.5,286.5C 241.206,284.464 243.539,283.464 246.5,283.5C 246.5,282.5 246.5,281.5 246.5,280.5C 250.548,280.605 254.548,280.272 258.5,279.5 Z"/></g>
<g><path style="opacity:0.808" fill="#68ad7b" d="M 238.5,287.5 C 231.258,289.141 223.925,290.475 216.5,291.5C 218.588,289.98 220.922,288.98 223.5,288.5C 227.778,287.77 232.111,287.103 236.5,286.5C 237.416,286.543 238.083,286.876 238.5,287.5 Z"/></g>
<g><path style="opacity:0.996" fill="#d16757" d="M 9.5,282.5 C 9.20872,288.683 7.54205,294.35 4.5,299.5C 5.29707,293.467 6.96373,287.8 9.5,282.5 Z"/></g>
<g><path style="opacity:0.192" fill="#8ba9dc" d="M 199.5,290.5 C 199.5,290.833 199.5,291.167 199.5,291.5C 164.817,290.84 130.484,291.507 96.5,293.5C 95.5222,293.189 94.8555,292.522 94.5,291.5C 129.494,290.5 164.494,290.167 199.5,290.5 Z"/></g>
<g><path style="opacity:0.973" fill="#5185de" d="M 199.5,291.5 C 200.167,291.5 200.833,291.5 201.5,291.5C 201.5,292.167 201.833,292.5 202.5,292.5C 207.5,296.833 212.167,301.5 216.5,306.5C 217.517,310.85 220.184,313.517 224.5,314.5C 228.403,317.947 232.07,321.614 235.5,325.5C 235.5,326.167 235.5,326.833 235.5,327.5C 232.655,325.44 229.655,324.44 226.5,324.5C 225.355,323.224 225.355,321.891 226.5,320.5C 225.168,316.984 222.835,315.818 219.5,317C 218.257,314.51 217.09,312.01 216,309.5C 214.132,310.672 212.298,310.505 210.5,309C 209.848,306.91 209.681,304.743 210,302.5C 205.671,300.1 202.505,296.766 200.5,292.5C 166.562,292.218 132.562,292.551 98.5,293.5C 101.06,295.273 103.393,297.273 105.5,299.5C 106.716,298.998 107.883,298.665 109,298.5C 109.684,299.784 109.517,300.951 108.5,302C 110.815,304.434 112.481,307.267 113.5,310.5C 107.5,305.167 101.833,299.5 96.5,293.5C 130.484,291.507 164.817,290.84 199.5,291.5 Z"/></g>
<g><path style="opacity:1" fill="#3d7ff4" d="M 235.5,327.5 C 239.489,332.156 243.823,336.489 248.5,340.5C 249.783,342.606 250.616,344.94 251,347.5C 251.333,347.167 251.667,346.833 252,346.5C 254.259,347.38 256.425,348.38 258.5,349.5C 258.833,349.5 259.167,349.5 259.5,349.5C 259.343,350.873 259.51,352.207 260,353.5C 263.464,357.463 267.631,360.463 272.5,362.5C 273.167,365.833 275.167,367.833 278.5,368.5C 279.142,372.133 281.142,374.466 284.5,375.5C 284.5,376.833 284.5,378.167 284.5,379.5C 287.503,380.834 290.503,382.167 293.5,383.5C 294.23,386.618 295.23,389.618 296.5,392.5C 299.388,392.22 300.888,393.553 301,396.5C 301.333,396.167 301.667,395.833 302,395.5C 304.561,396.234 306.727,397.567 308.5,399.5C 308.468,401.619 309.468,402.952 311.5,403.5C 311.343,404.873 311.51,406.207 312,407.5C 314.475,408.986 316.975,410.319 319.5,411.5C 319.338,413.527 319.505,415.527 320,417.5C 323.013,421.015 325.846,424.681 328.5,428.5C 329.731,427.349 329.731,426.183 328.5,425C 329.448,424.517 330.448,424.351 331.5,424.5C 331.215,426.288 331.548,427.955 332.5,429.5C 334.62,428.128 335.62,428.795 335.5,431.5C 337.216,431.629 338.883,431.962 340.5,432.5C 341.63,434.315 342.296,436.315 342.5,438.5C 343.552,438.351 344.552,438.517 345.5,439C 347.095,441.102 349.095,442.602 351.5,443.5C 352.038,445.117 352.371,446.784 352.5,448.5C 356.192,448.695 358.026,450.695 358,454.5C 359.414,453.587 360.914,453.587 362.5,454.5C 362.833,454.5 363.167,454.5 363.5,454.5C 364.167,455.833 365.167,456.833 366.5,457.5C 367.234,458.708 367.567,460.041 367.5,461.5C 371.073,462.396 373.739,464.562 375.5,468C 376.9,469.438 378.567,470.271 380.5,470.5C 382.833,472.167 384.833,474.167 386.5,476.5C 387.605,478.713 387.605,480.88 386.5,483C 389.353,484.43 392.353,485.263 395.5,485.5C 395.771,487.312 396.438,488.978 397.5,490.5C 401.863,493.202 405.53,496.536 408.5,500.5C 409.048,502.394 410.048,504.06 411.5,505.5C 411.167,506.167 410.833,506.833 410.5,507.5C 414.937,508.272 418.27,510.605 420.5,514.5C 422.071,515.309 423.738,515.643 425.5,515.5C 425.5,516.833 425.5,518.167 425.5,519.5C 427.818,520.709 430.151,522.043 432.5,523.5C 432.833,523.5 433.167,523.5 433.5,523.5C 433.539,524.583 433.873,525.583 434.5,526.5C 436.553,528.891 438.886,530.891 441.5,532.5C 442.167,532.833 442.833,533.167 443.5,533.5C 443.357,535.262 443.691,536.929 444.5,538.5C 448.25,540.694 451.583,543.36 454.5,546.5C 419.833,546.5 385.167,546.5 350.5,546.5C 350.123,544.742 349.456,543.075 348.5,541.5C 344.833,538.333 340.833,535.667 336.5,533.5C 335.647,530.637 333.98,528.304 331.5,526.5C 331.833,525.833 332.167,525.167 332.5,524.5C 331.092,523.757 329.759,522.923 328.5,522C 329.28,520.927 329.113,519.76 328,518.5C 326.028,517.695 324.528,516.361 323.5,514.5C 322.707,514.931 321.873,515.265 321,515.5C 319.594,514.586 318.094,513.92 316.5,513.5C 316.011,512.005 315.345,510.671 314.5,509.5C 313.5,508.833 312.5,508.167 311.5,507.5C 310.5,505.833 309.167,504.5 307.5,503.5C 305.167,500.833 302.833,498.167 300.5,495.5C 298.934,492.588 296.934,489.921 294.5,487.5C 294.667,487.167 294.833,486.833 295,486.5C 296.746,488.457 298.912,489.457 301.5,489.5C 301.5,488.5 301.5,487.5 301.5,486.5C 298.53,486.254 297.197,484.588 297.5,481.5C 296.167,481.5 294.833,481.5 293.5,481.5C 293.5,482.5 293.5,483.5 293.5,484.5C 291.61,484.703 290.11,484.037 289,482.5C 289.379,480.925 289.212,479.425 288.5,478C 287.216,477.316 286.049,477.483 285,478.5C 284.082,476.624 282.582,475.624 280.5,475.5C 279.5,474.833 278.5,474.167 277.5,473.5C 276.167,470.167 273.833,467.833 270.5,466.5C 270.5,464.5 269.5,463.5 267.5,463.5C 266.925,461.589 265.925,459.922 264.5,458.5C 264.5,457.5 264.5,456.5 264.5,455.5C 260.087,456.015 257.754,454.015 257.5,449.5C 252.526,448.606 249.526,445.606 248.5,440.5C 247.833,440.833 247.167,441.167 246.5,441.5C 244.549,439.908 243.216,437.908 242.5,435.5C 240.999,434.248 239.332,433.248 237.5,432.5C 236.355,431.224 236.355,429.891 237.5,428.5C 235.833,427.833 234.167,427.167 232.5,426.5C 233.859,424.694 233.525,423.194 231.5,422C 227.989,419.275 223.989,417.442 219.5,416.5C 217.901,413.541 216.235,410.541 214.5,407.5C 213.675,406.614 212.675,406.281 211.5,406.5C 211.785,404.712 211.452,403.045 210.5,401.5C 208.674,401.92 206.674,401.92 204.5,401.5C 201.833,399.5 199.5,397.167 197.5,394.5C 196.058,389.311 192.725,385.978 187.5,384.5C 185.833,383.5 184.5,382.167 183.5,380.5C 183.719,379.325 183.386,378.325 182.5,377.5C 179.978,373.875 176.978,370.709 173.5,368C 172.852,366.56 172.519,365.06 172.5,363.5C 166.943,363.112 163.777,360.112 163,354.5C 161.951,355.517 160.784,355.684 159.5,355C 157.623,352.874 156.623,350.374 156.5,347.5C 154.567,347.271 152.9,346.438 151.5,345C 150.663,343.989 150.33,342.822 150.5,341.5C 148.097,341.552 145.764,341.219 143.5,340.5C 142.986,338.302 141.986,336.302 140.5,334.5C 141.246,333.264 141.579,331.93 141.5,330.5C 139.801,330.66 138.134,330.494 136.5,330C 137.28,328.927 137.113,327.76 136,326.5C 135.612,327.428 134.945,328.095 134,328.5C 131.78,327.068 130.28,325.068 129.5,322.5C 127.929,321.691 126.262,321.357 124.5,321.5C 123.85,319.565 123.517,317.565 123.5,315.5C 122.167,315.5 120.833,315.5 119.5,315.5C 119.349,311.686 117.349,310.019 113.5,310.5C 112.481,307.267 110.815,304.434 108.5,302C 109.517,300.951 109.684,299.784 109,298.5C 107.883,298.665 106.716,298.998 105.5,299.5C 103.393,297.273 101.06,295.273 98.5,293.5C 132.562,292.551 166.562,292.218 200.5,292.5C 202.505,296.766 205.671,300.1 210,302.5C 209.681,304.743 209.848,306.91 210.5,309C 212.298,310.505 214.132,310.672 216,309.5C 217.09,312.01 218.257,314.51 219.5,317C 222.835,315.818 225.168,316.984 226.5,320.5C 225.355,321.891 225.355,323.224 226.5,324.5C 229.655,324.44 232.655,325.44 235.5,327.5 Z"/></g>
<g><path style="opacity:0.757" fill="#d98274" d="M 82.5,297.5 C 82.2671,300.542 81.2671,303.208 79.5,305.5C 79.0181,302.169 80.0181,299.503 82.5,297.5 Z"/></g>
<g><path style="opacity:0.843" fill="#7e9fd9" d="M 216.5,306.5 C 219.167,309.167 221.833,311.833 224.5,314.5C 220.184,313.517 217.517,310.85 216.5,306.5 Z"/></g>
<g><path style="opacity:1" fill="#618ddd" d="M 113.5,310.5 C 117.349,310.019 119.349,311.686 119.5,315.5C 120.833,315.5 122.167,315.5 123.5,315.5C 123.517,317.565 123.85,319.565 124.5,321.5C 120.5,318.167 116.833,314.5 113.5,310.5 Z"/></g>
<g><path style="opacity:1" fill="#d86c5d" d="M 3.5,302.5 C 3.20901,310.582 2.54235,318.582 1.5,326.5C 0.833333,327.5 0.166667,328.5 -0.5,329.5C -0.5,327.5 -0.5,325.5 -0.5,323.5C 0.35337,316.418 1.6867,309.418 3.5,302.5 Z"/></g>
<g><path style="opacity:0.078" fill="#fef1b3" d="M 437.5,327.5 C 400.5,327.5 363.5,327.5 326.5,327.5C 326.5,328.833 326.5,330.167 326.5,331.5C 325.549,330.081 325.216,328.415 325.5,326.5C 363.004,326.168 400.337,326.502 437.5,327.5 Z"/></g>
<g><path style="opacity:1" fill="#fbbc01" d="M 393.5,401.5 C 391.856,401.714 390.356,401.38 389,400.5C 388.5,401 388,401.5 387.5,402C 388.718,403.438 389.385,405.105 389.5,407C 387.793,411.762 386.46,416.595 385.5,421.5C 385.008,423.819 384.008,425.819 382.5,427.5C 379.363,431.178 377.696,435.511 377.5,440.5C 375.801,440.34 374.134,440.506 372.5,441C 373.476,443.147 373.309,445.314 372,447.5C 371.691,446.234 371.191,445.067 370.5,444C 368.939,443.682 367.772,442.849 367,441.5C 366,441.833 365,442.167 364,442.5C 362.333,440.833 360.667,439.167 359,437.5C 358.075,438.047 357.242,438.713 356.5,439.5C 357.645,440.891 357.645,442.224 356.5,443.5C 354.09,441.628 351.423,440.295 348.5,439.5C 347.247,434.974 344.581,431.641 340.5,429.5C 337.621,424.031 333.288,420.364 327.5,418.5C 326.545,416.254 325.878,413.921 325.5,411.5C 323.567,411.271 321.9,410.438 320.5,409C 319.663,407.989 319.33,406.822 319.5,405.5C 318.167,405.5 316.833,405.5 315.5,405.5C 316.643,402.316 317.309,398.983 317.5,395.5C 322.33,389.846 324.33,383.179 323.5,375.5C 324.966,374.653 325.8,373.32 326,371.5C 327.156,367.582 327.656,363.582 327.5,359.5C 328.494,349.347 328.828,339.014 328.5,328.5C 364.5,328.5 400.5,328.5 436.5,328.5C 436.5,352.5 436.5,376.5 436.5,400.5C 421.99,400.171 407.657,400.504 393.5,401.5 Z"/></g>
<g><path style="opacity:0.584" fill="#df7766" d="M 77.5,312.5 C 74.1905,326.958 72.8571,341.624 73.5,356.5C 71.8296,342.8 72.3296,329.133 75,315.5C 75.3768,314.058 76.2101,313.058 77.5,312.5 Z"/></g>
<g><path style="opacity:0.235" fill="#81a3da" d="M 235.5,325.5 C 240.134,330.3 244.968,334.966 250,339.5C 250.464,340.094 250.631,340.761 250.5,341.5C 249.833,341.167 249.167,340.833 248.5,340.5C 243.823,336.489 239.489,332.156 235.5,327.5C 235.5,326.833 235.5,326.167 235.5,325.5 Z"/></g>
<g><path style="opacity:1" fill="#5988e2" d="M 124.5,321.5 C 126.262,321.357 127.929,321.691 129.5,322.5C 130.28,325.068 131.78,327.068 134,328.5C 134.945,328.095 135.612,327.428 136,326.5C 137.113,327.76 137.28,328.927 136.5,330C 138.134,330.494 139.801,330.66 141.5,330.5C 141.579,331.93 141.246,333.264 140.5,334.5C 141.986,336.302 142.986,338.302 143.5,340.5C 136.833,334.5 130.5,328.167 124.5,321.5 Z"/></g>
<g><path style="opacity:0.8" fill="#ecbf48" d="M 437.5,327.5 C 438.498,351.994 438.831,376.661 438.5,401.5C 423.5,401.5 408.5,401.5 393.5,401.5C 407.657,400.504 421.99,400.171 436.5,400.5C 436.5,376.5 436.5,352.5 436.5,328.5C 400.5,328.5 364.5,328.5 328.5,328.5C 328.828,339.014 328.494,349.347 327.5,359.5C 327.826,350.983 327.493,342.65 326.5,334.5C 326.5,333.5 326.5,332.5 326.5,331.5C 326.5,330.167 326.5,328.833 326.5,327.5C 363.5,327.5 400.5,327.5 437.5,327.5 Z"/></g>
<g><path style="opacity:1" fill="#5f8bdf" d="M 248.5,340.5 C 249.167,340.833 249.833,341.167 250.5,341.5C 254.167,343.167 256.833,345.833 258.5,349.5C 256.425,348.38 254.259,347.38 252,346.5C 251.667,346.833 251.333,347.167 251,347.5C 250.616,344.94 249.783,342.606 248.5,340.5 Z"/></g>
<g><path style="opacity:1" fill="#e24e3a" d="M 1.5,326.5 C 1.59651,338.096 1.92984,349.43 2.5,360.5C 3.67974,364.14 3.67974,367.807 2.5,371.5C 3.59615,379.307 4.92948,386.973 6.5,394.5C 5.5,393.167 4.5,391.833 3.5,390.5C 2.40656,386.606 1.7399,382.606 1.5,378.5C 1.66568,374.154 1.49902,369.821 1,365.5C 0.721579,364.584 0.221579,363.918 -0.5,363.5C -0.5,352.167 -0.5,340.833 -0.5,329.5C 0.166667,328.5 0.833333,327.5 1.5,326.5 Z"/></g>
<g><path style="opacity:0.992" fill="#668fd6" d="M 259.5,349.5 C 263.833,353.833 268.167,358.167 272.5,362.5C 267.631,360.463 263.464,357.463 260,353.5C 259.51,352.207 259.343,350.873 259.5,349.5 Z"/></g>
<g><path style="opacity:1" fill="#608ddf" d="M 143.5,340.5 C 145.764,341.219 148.097,341.552 150.5,341.5C 150.33,342.822 150.663,343.989 151.5,345C 152.9,346.438 154.567,347.271 156.5,347.5C 156.623,350.374 157.623,352.874 159.5,355C 160.784,355.684 161.951,355.517 163,354.5C 163.777,360.112 166.943,363.112 172.5,363.5C 172.519,365.06 172.852,366.56 173.5,368C 176.978,370.709 179.978,373.875 182.5,377.5C 183.386,378.325 183.719,379.325 183.5,380.5C 169.833,367.5 156.5,354.167 143.5,340.5 Z"/></g>
<g><path style="opacity:0.894" fill="#ebcc69" d="M 326.5,334.5 C 327.493,342.65 327.826,350.983 327.5,359.5C 327.656,363.582 327.156,367.582 326,371.5C 325.8,373.32 324.966,374.653 323.5,375.5C 326.15,361.98 327.15,348.314 326.5,334.5 Z"/></g>
<g><path style="opacity:0.455" fill="#97b3de" d="M 272.5,362.5 C 274.833,364.167 276.833,366.167 278.5,368.5C 275.167,367.833 273.167,365.833 272.5,362.5 Z"/></g>
<g><path style="opacity:0.145" fill="#dc8b81" d="M -0.5,363.5 C 0.221579,363.918 0.721579,364.584 1,365.5C 1.49902,369.821 1.66568,374.154 1.5,378.5C 0.833333,375.5 0.166667,372.5 -0.5,369.5C -0.5,367.5 -0.5,365.5 -0.5,363.5 Z"/></g>
<g><path style="opacity:1" fill="#7399db" d="M 278.5,368.5 C 283.833,373.167 288.833,378.167 293.5,383.5C 290.503,382.167 287.503,380.834 284.5,379.5C 284.5,378.167 284.5,376.833 284.5,375.5C 281.142,374.466 279.142,372.133 278.5,368.5 Z"/></g>
<g><path style="opacity:0.51" fill="#de8d7f" d="M 73.5,357.5 C 75.3051,367.082 77.3051,376.748 79.5,386.5C 78.5,384.5 77.5,382.5 76.5,380.5C 74.8651,372.924 73.8651,365.257 73.5,357.5 Z"/></g>
<g><path style="opacity:0.996" fill="#7297dd" d="M 187.5,384.5 C 192.725,385.978 196.058,389.311 197.5,394.5C 193.833,391.5 190.5,388.167 187.5,384.5 Z"/></g>
<g><path style="opacity:0.992" fill="#d75946" d="M 76.5,380.5 C 77.5,382.5 78.5,384.5 79.5,386.5C 81.41,389.555 82.7433,392.889 83.5,396.5C 82.0941,394.526 80.5941,392.526 79,390.5C 77.5873,388.348 76.7539,386.014 76.5,383.5C 76.5,382.5 76.5,381.5 76.5,380.5 Z"/></g>
<g><path style="opacity:1" fill="#ea402c" d="M 76.5,383.5 C 76.7539,386.014 77.5873,388.348 79,390.5C 80.5941,392.526 82.0941,394.526 83.5,396.5C 83.5,396.833 83.5,397.167 83.5,397.5C 83.1842,400.978 83.6842,404.312 85,407.5C 85.8928,406.289 86.7261,406.289 87.5,407.5C 89.5636,410.943 91.0636,414.61 92,418.5C 94.7262,421.069 97.5595,423.402 100.5,425.5C 101.833,425.5 102.5,426.167 102.5,427.5C 102.917,430.343 103.917,433.01 105.5,435.5C 109.035,438.716 113.035,441.05 117.5,442.5C 117.751,444.17 118.418,445.67 119.5,447C 122.223,449.096 125.223,450.596 128.5,451.5C 133.171,457.623 139.505,460.956 147.5,461.5C 148.626,463.453 150.292,464.953 152.5,466C 157.717,467.743 163.05,468.91 168.5,469.5C 168.953,470.458 169.619,471.292 170.5,472C 180.245,474.299 189.912,474.799 199.5,473.5C 199.833,473.5 200.167,473.5 200.5,473.5C 200.5,497.833 200.5,522.167 200.5,546.5C 194.5,546.5 188.5,546.5 182.5,546.5C 182.389,545.883 182.056,545.383 181.5,545C 176.177,544.501 170.844,544.334 165.5,544.5C 164.209,544.737 163.209,544.404 162.5,543.5C 159.493,541.825 156.16,541.159 152.5,541.5C 150.898,539.926 148.898,539.259 146.5,539.5C 145.833,539.5 145.167,539.5 144.5,539.5C 142.898,537.926 140.898,537.259 138.5,537.5C 138.167,537.5 137.833,537.5 137.5,537.5C 136.358,535.567 134.692,534.067 132.5,533C 128.406,532.443 124.406,531.61 120.5,530.5C 118.245,528.62 115.578,527.62 112.5,527.5C 112.586,526.504 112.252,525.671 111.5,525C 108.29,522.896 104.957,521.063 101.5,519.5C 100.614,518.675 100.281,517.675 100.5,516.5C 94.2706,515.55 88.9373,512.716 84.5,508C 83.2068,507.51 81.8734,507.343 80.5,507.5C 79.1979,505.178 77.1979,503.845 74.5,503.5C 72.1247,500.584 70.2913,497.251 69,493.5C 68.6667,493.833 68.3333,494.167 68,494.5C 65.1194,491.636 61.6194,489.636 57.5,488.5C 57.5,487.167 57.5,485.833 57.5,484.5C 56.1667,484.5 54.8333,484.5 53.5,484.5C 53.5,484.167 53.5,483.833 53.5,483.5C 51.6167,477.947 47.95,473.947 42.5,471.5C 42.762,470.022 42.4287,468.689 41.5,467.5C 38.8204,463.491 36.1537,459.491 33.5,455.5C 32.6431,454.575 31.6431,453.908 30.5,453.5C 28.1325,451.802 26.4658,449.469 25.5,446.5C 25.416,443.318 24.0827,440.985 21.5,439.5C 20.5592,437.95 19.8925,436.284 19.5,434.5C 19.8798,430.606 18.5464,427.606 15.5,425.5C 15.5047,421.773 14.1714,418.773 11.5,416.5C 11.6198,412.958 11.2865,409.458 10.5,406C 8.23313,402.513 6.8998,398.679 6.5,394.5C 4.92948,386.973 3.59615,379.307 2.5,371.5C 3.67974,367.807 3.67974,364.14 2.5,360.5C 3.11742,360.611 3.61742,360.944 4,361.5C 4.76899,358.901 4.60232,356.401 3.5,354C 5.64987,351.959 6.64987,349.459 6.5,346.5C 25.5029,346.333 44.5029,346.5 63.5,347C 44.8363,347.5 26.1696,347.667 7.5,347.5C 6.99988,353.028 7.66655,358.362 9.5,363.5C 27.4908,364.333 45.4908,364.833 63.5,365C 47.0968,364.855 30.9301,365.689 15,367.5C 13.5341,365.675 11.7008,365.175 9.5,366C 10.8045,366.804 11.4712,367.971 11.5,369.5C 10.9034,375.347 9.57011,381.013 7.5,386.5C 8.94891,391.052 9.78224,395.719 10,400.5C 11.3159,403.028 12.4826,403.028 13.5,400.5C 12.3576,398.883 11.691,397.05 11.5,395C 11.0454,392.077 12.0454,389.91 14.5,388.5C 79.751,390.163 79.751,391.163 14.5,391.5C 14.3505,392.552 14.5172,393.552 15,394.5C 33.1024,393.84 51.269,393.173 69.5,392.5C 66.5136,391.387 65.8469,389.553 67.5,387C 65.1497,381.805 64.983,376.639 67,371.5C 68.023,372.6 68.523,373.933 68.5,375.5C 67.9049,378.14 67.5715,380.807 67.5,383.5C 68.5,383.5 69.5,383.5 70.5,383.5C 70.8914,388.869 73.3914,392.869 78,395.5C 78.6667,394.5 78.6667,393.5 78,392.5C 75.2155,391.712 74.0488,389.879 74.5,387C 74.6083,385.319 75.2749,384.152 76.5,383.5 Z"/></g>
<g><path style="opacity:1" fill="#6f95df" d="M 293.5,383.5 C 299.199,388.198 304.199,393.531 308.5,399.5C 306.727,397.567 304.561,396.234 302,395.5C 301.667,395.833 301.333,396.167 301,396.5C 300.888,393.553 299.388,392.22 296.5,392.5C 295.23,389.618 294.23,386.618 293.5,383.5 Z"/></g>
<g><path style="opacity:0.996" fill="#edc449" d="M 323.5,375.5 C 324.33,383.179 322.33,389.846 317.5,395.5C 319.729,388.822 321.729,382.155 323.5,375.5 Z"/></g>
<g><path style="opacity:0.945" fill="#e9c65c" d="M 317.5,395.5 C 317.309,398.983 316.643,402.316 315.5,405.5C 313.952,405.179 313.285,404.179 313.5,402.5C 314.584,399.996 315.917,397.663 317.5,395.5 Z"/></g>
<g><path style="opacity:1" fill="#f0c43e" d="M 393.5,401.5 C 392.113,407.72 390.113,413.72 387.5,419.5C 386.833,420.167 386.167,420.833 385.5,421.5C 386.46,416.595 387.793,411.762 389.5,407C 389.385,405.105 388.718,403.438 387.5,402C 388,401.5 388.5,401 389,400.5C 390.356,401.38 391.856,401.714 393.5,401.5 Z"/></g>
<g><path style="opacity:1" fill="#5f8ce1" d="M 204.5,401.5 C 206.674,401.92 208.674,401.92 210.5,401.5C 211.452,403.045 211.785,404.712 211.5,406.5C 212.675,406.281 213.675,406.614 214.5,407.5C 216.235,410.541 217.901,413.541 219.5,416.5C 214.167,411.833 209.167,406.833 204.5,401.5 Z"/></g>
<g><path style="opacity:1" fill="#da6655" d="M 3.5,390.5 C 4.5,391.833 5.5,393.167 6.5,394.5C 6.8998,398.679 8.23313,402.513 10.5,406C 11.2865,409.458 11.6198,412.958 11.5,416.5C 7.96428,408.207 5.29762,399.54 3.5,390.5 Z"/></g>
<g><path style="opacity:1" fill="#7492c0" d="M 308.5,399.5 C 310.411,400.075 312.078,401.075 313.5,402.5C 313.285,404.179 313.952,405.179 315.5,405.5C 315.5,406.167 315.5,406.833 315.5,407.5C 314.761,407.631 314.094,407.464 313.5,407C 312.915,405.698 312.249,404.531 311.5,403.5C 309.468,402.952 308.468,401.619 308.5,399.5 Z"/></g>
<g><path style="opacity:1" fill="#5080d0" d="M 311.5,403.5 C 312.249,404.531 312.915,405.698 313.5,407C 314.094,407.464 314.761,407.631 315.5,407.5C 317.167,408.5 318.5,409.833 319.5,411.5C 316.975,410.319 314.475,408.986 312,407.5C 311.51,406.207 311.343,404.873 311.5,403.5 Z"/></g>
<g><path style="opacity:1" fill="#e0b73d" d="M 315.5,405.5 C 316.833,405.5 318.167,405.5 319.5,405.5C 319.33,406.822 319.663,407.989 320.5,409C 321.9,410.438 323.567,411.271 325.5,411.5C 325.878,413.921 326.545,416.254 327.5,418.5C 324.833,416.167 322.167,413.833 319.5,411.5C 318.5,409.833 317.167,408.5 315.5,407.5C 315.5,406.833 315.5,406.167 315.5,405.5 Z"/></g>
<g><path style="opacity:1" fill="#da5d49" d="M 83.5,397.5 C 88.793,407.024 94.4597,416.357 100.5,425.5C 97.5595,423.402 94.7262,421.069 92,418.5C 91.0636,414.61 89.5636,410.943 87.5,407.5C 86.7261,406.289 85.8928,406.289 85,407.5C 83.6842,404.312 83.1842,400.978 83.5,397.5 Z"/></g>
<g><path style="opacity:0.851" fill="#d77267" d="M 11.5,416.5 C 14.1714,418.773 15.5047,421.773 15.5,425.5C 13.4082,422.912 12.0749,419.912 11.5,416.5 Z"/></g>
<g><path style="opacity:1" fill="#5d8be2" d="M 219.5,416.5 C 223.989,417.442 227.989,419.275 231.5,422C 233.525,423.194 233.859,424.694 232.5,426.5C 234.167,427.167 235.833,427.833 237.5,428.5C 236.355,429.891 236.355,431.224 237.5,432.5C 239.332,433.248 240.999,434.248 242.5,435.5C 243.216,437.908 244.549,439.908 246.5,441.5C 247.167,441.167 247.833,440.833 248.5,440.5C 249.526,445.606 252.526,448.606 257.5,449.5C 257.754,454.015 260.087,456.015 264.5,455.5C 264.5,456.5 264.5,457.5 264.5,458.5C 263.609,457.89 262.609,457.557 261.5,457.5C 260.833,457.5 260.167,457.5 259.5,457.5C 246.167,443.833 232.833,430.167 219.5,416.5 Z"/></g>
<g><path style="opacity:1" fill="#4d80df" d="M 319.5,411.5 C 322.167,413.833 324.833,416.167 327.5,418.5C 331.805,423.141 336.139,427.807 340.5,432.5C 338.883,431.962 337.216,431.629 335.5,431.5C 335.62,428.795 334.62,428.128 332.5,429.5C 331.548,427.955 331.215,426.288 331.5,424.5C 330.448,424.351 329.448,424.517 328.5,425C 329.731,426.183 329.731,427.349 328.5,428.5C 325.846,424.681 323.013,421.015 320,417.5C 319.505,415.527 319.338,413.527 319.5,411.5 Z"/></g>
<g><path style="opacity:0.153" fill="#f4da82" d="M 387.5,419.5 C 386.352,423.787 384.685,427.787 382.5,431.5C 382.5,430.167 382.5,428.833 382.5,427.5C 384.008,425.819 385.008,423.819 385.5,421.5C 386.167,420.833 386.833,420.167 387.5,419.5 Z"/></g>
<g><path style="opacity:1" fill="#e0b939" d="M 327.5,418.5 C 333.288,420.364 337.621,424.031 340.5,429.5C 344.581,431.641 347.247,434.974 348.5,439.5C 345.833,437.167 343.167,434.833 340.5,432.5C 336.139,427.807 331.805,423.141 327.5,418.5 Z"/></g>
<g><path style="opacity:1" fill="#d9735e" d="M 15.5,425.5 C 18.5464,427.606 19.8798,430.606 19.5,434.5C 17.3926,431.943 16.0592,428.943 15.5,425.5 Z"/></g>
<g><path style="opacity:1" fill="#f0c444" d="M 382.5,427.5 C 382.5,428.833 382.5,430.167 382.5,431.5C 381.59,434.992 379.924,437.992 377.5,440.5C 377.696,435.511 379.363,431.178 382.5,427.5 Z"/></g>
<g><path style="opacity:1" fill="#db5f4f" d="M 102.5,427.5 C 107.281,432.736 112.281,437.736 117.5,442.5C 113.035,441.05 109.035,438.716 105.5,435.5C 103.917,433.01 102.917,430.343 102.5,427.5 Z"/></g>
<g><path style="opacity:1" fill="#6182ba" d="M 340.5,432.5 C 343.167,434.833 345.833,437.167 348.5,439.5C 349.789,440.637 350.789,441.97 351.5,443.5C 349.095,442.602 347.095,441.102 345.5,439C 344.552,438.517 343.552,438.351 342.5,438.5C 342.296,436.315 341.63,434.315 340.5,432.5 Z"/></g>
<g><path style="opacity:1" fill="#f4be21" d="M 377.5,440.5 C 376.61,443.948 374.943,446.948 372.5,449.5C 369.53,449.746 368.197,451.412 368.5,454.5C 366.833,454.5 365.167,454.5 363.5,454.5C 363.167,454.5 362.833,454.5 362.5,454.5C 359.167,450.5 355.5,446.833 351.5,443.5C 350.789,441.97 349.789,440.637 348.5,439.5C 351.423,440.295 354.09,441.628 356.5,443.5C 357.645,442.224 357.645,440.891 356.5,439.5C 357.242,438.713 358.075,438.047 359,437.5C 360.667,439.167 362.333,440.833 364,442.5C 365,442.167 366,441.833 367,441.5C 367.772,442.849 368.939,443.682 370.5,444C 371.191,445.067 371.691,446.234 372,447.5C 373.309,445.314 373.476,443.147 372.5,441C 374.134,440.506 375.801,440.34 377.5,440.5 Z"/></g>
<g><path style="opacity:0.373" fill="#eba399" d="M 21.5,439.5 C 24.0827,440.985 25.416,443.318 25.5,446.5C 23.9291,444.365 22.5957,442.032 21.5,439.5 Z"/></g>
<g><path style="opacity:0.988" fill="#d56d5e" d="M 117.5,442.5 C 121.482,445.152 125.149,448.152 128.5,451.5C 125.223,450.596 122.223,449.096 119.5,447C 118.418,445.67 117.751,444.17 117.5,442.5 Z"/></g>
<g><path style="opacity:1" fill="#5781cd" d="M 351.5,443.5 C 355.5,446.833 359.167,450.5 362.5,454.5C 360.914,453.587 359.414,453.587 358,454.5C 358.026,450.695 356.192,448.695 352.5,448.5C 352.371,446.784 352.038,445.117 351.5,443.5 Z"/></g>
<g><path style="opacity:0.98" fill="#eacb5d" d="M 372.5,449.5 C 371.647,452.368 370.314,455.035 368.5,457.5C 367.833,457.5 367.167,457.5 366.5,457.5C 365.167,456.833 364.167,455.833 363.5,454.5C 365.167,454.5 366.833,454.5 368.5,454.5C 368.197,451.412 369.53,449.746 372.5,449.5 Z"/></g>
<g><path style="opacity:0.082" fill="#e7a89e" d="M 133.5,454.5 C 135.97,454.654 137.97,455.654 139.5,457.5C 137.03,457.346 135.03,456.346 133.5,454.5 Z"/></g>
<g><path style="opacity:1" fill="#d9624f" d="M 128.5,451.5 C 130.674,451.75 132.341,452.75 133.5,454.5C 135.03,456.346 137.03,457.346 139.5,457.5C 142.205,458.853 144.872,460.186 147.5,461.5C 139.505,460.956 133.171,457.623 128.5,451.5 Z"/></g>
<g><path style="opacity:1" fill="#798ba0" d="M 261.5,457.5 C 262.609,457.557 263.609,457.89 264.5,458.5C 265.925,459.922 266.925,461.589 267.5,463.5C 265.833,462.167 264.167,460.833 262.5,459.5C 262.167,458.833 261.833,458.167 261.5,457.5 Z"/></g>
<g><path style="opacity:0.463" fill="#dbc883" d="M 259.5,457.5 C 260.167,457.5 260.833,457.5 261.5,457.5C 261.833,458.167 262.167,458.833 262.5,459.5C 260.833,459.5 259.167,459.5 257.5,459.5C 257.833,458.5 258.5,457.833 259.5,457.5 Z"/></g>
<g><path style="opacity:0.992" fill="#d86a5a" d="M 30.5,453.5 C 31.6431,453.908 32.6431,454.575 33.5,455.5C 36.1537,459.491 38.8204,463.491 41.5,467.5C 42.4287,468.689 42.762,470.022 42.5,471.5C 39.5779,467.399 36.4113,463.399 33,459.5C 31.878,457.593 31.0447,455.593 30.5,453.5 Z"/></g>
<g><path style="opacity:0.804" fill="#85a2d7" d="M 366.5,457.5 C 367.167,457.5 367.833,457.5 368.5,457.5C 372.5,461.833 376.5,466.167 380.5,470.5C 378.567,470.271 376.9,469.438 375.5,468C 373.739,464.562 371.073,462.396 367.5,461.5C 367.567,460.041 367.234,458.708 366.5,457.5 Z"/></g>
<g><path style="opacity:1" fill="#7f8e96" d="M 267.5,463.5 C 269.5,463.5 270.5,464.5 270.5,466.5C 269.167,465.833 268.167,464.833 267.5,463.5 Z"/></g>
<g><path style="opacity:0.784" fill="#ebc75a" d="M 248.5,463.5 C 246.882,465.316 244.882,466.649 242.5,467.5C 240.833,467.5 239.167,467.5 237.5,467.5C 240.982,465.938 244.648,464.605 248.5,463.5 Z"/></g>
<g><path style="opacity:0.961" fill="#dd7a6a" d="M 147.5,461.5 C 154.472,464.496 161.472,467.163 168.5,469.5C 163.05,468.91 157.717,467.743 152.5,466C 150.292,464.953 148.626,463.453 147.5,461.5 Z"/></g>
<g><path style="opacity:1" fill="#7e8d93" d="M 270.5,466.5 C 273.833,467.833 276.167,470.167 277.5,473.5C 274.833,471.5 272.5,469.167 270.5,466.5 Z"/></g>
<g><path style="opacity:1" fill="#f2c040" d="M 237.5,467.5 C 239.167,467.5 240.833,467.5 242.5,467.5C 240.29,468.351 238.29,469.684 236.5,471.5C 235.833,471.167 235.167,470.833 234.5,470.5C 230.65,471.982 226.65,472.816 222.5,473C 215.174,473.5 207.841,473.666 200.5,473.5C 200.167,473.5 199.833,473.5 199.5,473.5C 199.5,473.167 199.5,472.833 199.5,472.5C 212.446,472.581 225.112,470.914 237.5,467.5 Z"/></g>
<g><path style="opacity:1" fill="#f2be24" d="M 257.5,459.5 C 259.167,459.5 260.833,459.5 262.5,459.5C 264.167,460.833 265.833,462.167 267.5,463.5C 268.167,464.833 269.167,465.833 270.5,466.5C 272.5,469.167 274.833,471.5 277.5,473.5C 278.5,476.5 280.5,478.5 283.5,479.5C 283.5,480.167 283.5,480.833 283.5,481.5C 281.703,480.27 279.703,479.604 277.5,479.5C 276.169,478.213 275.169,476.047 274.5,473C 272.524,472.812 270.524,472.979 268.5,473.5C 264.761,473.629 263.928,472.296 266,469.5C 267.471,471.872 268.637,471.872 269.5,469.5C 267.762,465.361 265.262,464.695 262,467.5C 261.666,465.153 261.833,462.819 262.5,460.5C 257.649,461.002 252.983,462.002 248.5,463.5C 251.053,461.416 254.053,460.083 257.5,459.5 Z"/></g>
<g><path style="opacity:1" fill="#da6b58" d="M 168.5,469.5 C 178.734,471.404 189.067,472.404 199.5,472.5C 199.5,472.833 199.5,473.167 199.5,473.5C 189.912,474.799 180.245,474.299 170.5,472C 169.619,471.292 168.953,470.458 168.5,469.5 Z"/></g>
<g><path style="opacity:1" fill="#fbbc02" d="M 283.5,481.5 C 285.246,483.252 287.246,484.585 289.5,485.5C 289.833,487.833 291.167,489.167 293.5,489.5C 297.139,495.139 301.806,499.806 307.5,503.5C 307.525,506.179 308.858,507.512 311.5,507.5C 312.15,509.435 312.483,511.435 312.5,513.5C 312.167,513.5 311.833,513.5 311.5,513.5C 311.265,512.903 310.765,512.57 310,512.5C 305.933,515.446 301.767,518.279 297.5,521C 295.559,521.743 293.726,521.576 292,520.5C 291.51,521.793 291.343,523.127 291.5,524.5C 285.764,526.709 280.097,529.209 274.5,532C 268.238,533.394 262.238,535.394 256.5,538C 254.527,538.495 252.527,538.662 250.5,538.5C 250.649,537.448 250.483,536.448 250,535.5C 248.476,538.236 246.309,540.236 243.5,541.5C 237.898,542.734 232.231,543.567 226.5,544C 225.944,544.383 225.611,544.883 225.5,545.5C 224.833,545.5 224.5,545.833 224.5,546.5C 216.5,546.5 208.5,546.5 200.5,546.5C 200.5,522.167 200.5,497.833 200.5,473.5C 207.841,473.666 215.174,473.5 222.5,473C 226.65,472.816 230.65,471.982 234.5,470.5C 235.167,470.833 235.833,471.167 236.5,471.5C 238.29,469.684 240.29,468.351 242.5,467.5C 244.882,466.649 246.882,465.316 248.5,463.5C 252.983,462.002 257.649,461.002 262.5,460.5C 261.833,462.819 261.666,465.153 262,467.5C 265.262,464.695 267.762,465.361 269.5,469.5C 268.637,471.872 267.471,471.872 266,469.5C 263.928,472.296 264.761,473.629 268.5,473.5C 270.524,472.979 272.524,472.812 274.5,473C 275.169,476.047 276.169,478.213 277.5,479.5C 279.703,479.604 281.703,480.27 283.5,481.5 Z"/></g>
<g><path style="opacity:1" fill="#afa470" d="M 277.5,473.5 C 278.5,474.167 279.5,474.833 280.5,475.5C 281.5,476.833 282.5,478.167 283.5,479.5C 280.5,478.5 278.5,476.5 277.5,473.5 Z"/></g>
<g><path style="opacity:1" fill="#d65c4a" d="M 42.5,471.5 C 47.95,473.947 51.6167,477.947 53.5,483.5C 49.175,480.172 45.5083,476.172 42.5,471.5 Z"/></g>
<g><path style="opacity:1" fill="#aea570" d="M 283.5,479.5 C 285.833,481.167 287.833,483.167 289.5,485.5C 287.246,484.585 285.246,483.252 283.5,481.5C 283.5,480.833 283.5,480.167 283.5,479.5 Z"/></g>
<g><path style="opacity:1" fill="#6790de" d="M 386.5,476.5 C 389.5,479.5 392.5,482.5 395.5,485.5C 392.353,485.263 389.353,484.43 386.5,483C 387.605,480.88 387.605,478.713 386.5,476.5 Z"/></g>
<g><path style="opacity:0.988" fill="#dd7d6b" d="M 53.5,484.5 C 54.8333,484.5 56.1667,484.5 57.5,484.5C 57.5,485.833 57.5,487.167 57.5,488.5C 56.1667,487.167 54.8333,485.833 53.5,484.5 Z"/></g>
<g><path style="opacity:1" fill="#4880e2" d="M 280.5,475.5 C 282.582,475.624 284.082,476.624 285,478.5C 286.049,477.483 287.216,477.316 288.5,478C 289.212,479.425 289.379,480.925 289,482.5C 290.11,484.037 291.61,484.703 293.5,484.5C 293.5,483.5 293.5,482.5 293.5,481.5C 294.833,481.5 296.167,481.5 297.5,481.5C 297.197,484.588 298.53,486.254 301.5,486.5C 301.5,487.5 301.5,488.5 301.5,489.5C 298.912,489.457 296.746,488.457 295,486.5C 294.833,486.833 294.667,487.167 294.5,487.5C 296.934,489.921 298.934,492.588 300.5,495.5C 298.167,493.5 295.833,491.5 293.5,489.5C 292.5,487.833 291.167,486.5 289.5,485.5C 287.833,483.167 285.833,481.167 283.5,479.5C 282.5,478.167 281.5,476.833 280.5,475.5 Z"/></g>
<g><path style="opacity:1" fill="#b5a671" d="M 289.5,485.5 C 291.167,486.5 292.5,487.833 293.5,489.5C 291.167,489.167 289.833,487.833 289.5,485.5 Z"/></g>
<g><path style="opacity:1" fill="#b2a96a" d="M 293.5,489.5 C 295.833,491.5 298.167,493.5 300.5,495.5C 302.833,498.167 305.167,500.833 307.5,503.5C 301.806,499.806 297.139,495.139 293.5,489.5 Z"/></g>
<g><path style="opacity:1" fill="#da5d4a" d="M 57.5,488.5 C 61.6194,489.636 65.1194,491.636 68,494.5C 68.3333,494.167 68.6667,493.833 69,493.5C 70.2913,497.251 72.1247,500.584 74.5,503.5C 68.511,498.843 62.8443,493.843 57.5,488.5 Z"/></g>
<g><path style="opacity:0.827" fill="#7f9cd6" d="M 395.5,485.5 C 401.527,490.86 407.194,496.527 412.5,502.5C 410.938,502.267 409.605,501.6 408.5,500.5C 405.53,496.536 401.863,493.202 397.5,490.5C 396.438,488.978 395.771,487.312 395.5,485.5 Z"/></g>
<g><path style="opacity:0.278" fill="#e18b80" d="M 74.5,503.5 C 77.1979,503.845 79.1979,505.178 80.5,507.5C 78.1475,506.66 76.1475,505.326 74.5,503.5 Z"/></g>
<g><path style="opacity:1" fill="#c7b456" d="M 307.5,503.5 C 309.167,504.5 310.5,505.833 311.5,507.5C 308.858,507.512 307.525,506.179 307.5,503.5 Z"/></g>
<g><path style="opacity:1" fill="#5d8be0" d="M 408.5,500.5 C 409.605,501.6 410.938,502.267 412.5,502.5C 417.194,506.527 421.527,510.86 425.5,515.5C 423.738,515.643 422.071,515.309 420.5,514.5C 418.27,510.605 414.937,508.272 410.5,507.5C 410.833,506.833 411.167,506.167 411.5,505.5C 410.048,504.06 409.048,502.394 408.5,500.5 Z"/></g>
<g><path style="opacity:0.988" fill="#c9ba73" d="M 311.5,507.5 C 312.5,508.167 313.5,508.833 314.5,509.5C 314.5,510.5 314.5,511.5 314.5,512.5C 313.833,512.833 313.167,513.167 312.5,513.5C 312.483,511.435 312.15,509.435 311.5,507.5 Z"/></g>
<g><path style="opacity:0.118" fill="#afc6de" d="M 314.5,509.5 C 315.345,510.671 316.011,512.005 316.5,513.5C 315.508,513.672 314.842,513.338 314.5,512.5C 314.5,511.5 314.5,510.5 314.5,509.5 Z"/></g>
<g><path style="opacity:0.835" fill="#d86859" d="M 80.5,507.5 C 81.8734,507.343 83.2068,507.51 84.5,508C 88.9373,512.716 94.2706,515.55 100.5,516.5C 100.281,517.675 100.614,518.675 101.5,519.5C 104.957,521.063 108.29,522.896 111.5,525C 112.252,525.671 112.586,526.504 112.5,527.5C 100.806,522.328 90.1398,515.661 80.5,507.5 Z"/></g>
<g><path style="opacity:1" fill="#5a8be4" d="M 316.5,513.5 C 318.094,513.92 319.594,514.586 321,515.5C 321.873,515.265 322.707,514.931 323.5,514.5C 324.528,516.361 326.028,517.695 328,518.5C 329.113,519.76 329.28,520.927 328.5,522C 329.759,522.923 331.092,523.757 332.5,524.5C 332.167,525.167 331.833,525.833 331.5,526.5C 333.98,528.304 335.647,530.637 336.5,533.5C 329.5,527.167 322.833,520.5 316.5,513.5 Z"/></g>
<g><path style="opacity:0.894" fill="#7193d5" d="M 425.5,515.5 C 428.303,517.783 430.636,520.45 432.5,523.5C 430.151,522.043 427.818,520.709 425.5,519.5C 425.5,518.167 425.5,516.833 425.5,515.5 Z"/></g>
<g><path style="opacity:0.98" fill="#f1cb59" d="M 311.5,513.5 C 285.89,531.76 257.223,542.427 225.5,545.5C 225.611,544.883 225.944,544.383 226.5,544C 232.231,543.567 237.898,542.734 243.5,541.5C 246.309,540.236 248.476,538.236 250,535.5C 250.483,536.448 250.649,537.448 250.5,538.5C 252.527,538.662 254.527,538.495 256.5,538C 262.238,535.394 268.238,533.394 274.5,532C 280.097,529.209 285.764,526.709 291.5,524.5C 291.343,523.127 291.51,521.793 292,520.5C 293.726,521.576 295.559,521.743 297.5,521C 301.767,518.279 305.933,515.446 310,512.5C 310.765,512.57 311.265,512.903 311.5,513.5 Z"/></g>
<g><path style="opacity:0.655" fill="#de8f80" d="M 112.5,527.5 C 115.578,527.62 118.245,528.62 120.5,530.5C 117.422,530.38 114.755,529.38 112.5,527.5 Z"/></g>
<g><path style="opacity:0.855" fill="#799bd8" d="M 433.5,523.5 C 436.869,525.927 439.536,528.927 441.5,532.5C 438.886,530.891 436.553,528.891 434.5,526.5C 433.873,525.583 433.539,524.583 433.5,523.5 Z"/></g>
<g><path style="opacity:0.973" fill="#d76356" d="M 120.5,530.5 C 124.406,531.61 128.406,532.443 132.5,533C 134.692,534.067 136.358,535.567 137.5,537.5C 131.423,535.955 125.756,533.622 120.5,530.5 Z"/></g>
<g><path style="opacity:0.741" fill="#d38570" d="M 138.5,537.5 C 140.898,537.259 142.898,537.926 144.5,539.5C 142.102,539.741 140.102,539.074 138.5,537.5 Z"/></g>
<g><path style="opacity:1" fill="#7094da" d="M 443.5,533.5 C 447.546,537.217 451.546,540.884 455.5,544.5C 455.5,545.167 455.5,545.833 455.5,546.5C 455.167,546.5 454.833,546.5 454.5,546.5C 451.583,543.36 448.25,540.694 444.5,538.5C 443.691,536.929 443.357,535.262 443.5,533.5 Z"/></g>
<g><path style="opacity:0.506" fill="#dc7e78" d="M 146.5,539.5 C 148.898,539.259 150.898,539.926 152.5,541.5C 150.102,541.741 148.102,541.074 146.5,539.5 Z"/></g>
<g><path style="opacity:1" fill="#6991de" d="M 336.5,533.5 C 340.833,535.667 344.833,538.333 348.5,541.5C 349.456,543.075 350.123,544.742 350.5,546.5C 349.833,546.5 349.167,546.5 348.5,546.5C 344.528,542.193 340.528,537.859 336.5,533.5 Z"/></g>
<g><path style="opacity:0.145" fill="#db7870" d="M 152.5,541.5 C 156.16,541.159 159.493,541.825 162.5,543.5C 158.84,543.841 155.507,543.175 152.5,541.5 Z"/></g>
<g><path style="opacity:0.855" fill="#e17662" d="M 165.5,544.5 C 170.844,544.334 176.177,544.501 181.5,545C 182.056,545.383 182.389,545.883 182.5,546.5C 180.5,546.5 178.5,546.5 176.5,546.5C 172.833,545.833 169.167,545.167 165.5,544.5 Z"/></g>
</svg>
